<svg xmlns="http://www.w3.org/2000/svg" width="1600" height="900" viewBox="0 0 1600 900"><title>M2.2 silhouette comparison</title><rect width="100%" height="100%" fill="#080a0f"/><text x="80" y="66" fill="#f4f6fb" font-family="system-ui" font-size="34" font-weight="700">M2.2 silhouette comparison</text><text x="80" y="98" fill="#98a2b5" font-family="system-ui" font-size="17">Rejected alpha characteristics at left, clean NTSC-U front rebuild at right</text><rect x="70" y="140" width="700" height="680" rx="26" fill="#15131a" stroke="#3a263d"/><rect x="230" y="225" width="380" height="500" rx="32" fill="#787681" stroke="#d05b7c" stroke-width="3"/><rect x="290" y="310" width="260" height="138" rx="16" fill="#56545d" stroke="#d05b7c" stroke-width="6"/><g stroke="#d05b7c" stroke-width="8"><line x1="250" y1="480" x2="300" y2="480"/><line x1="540" y1="480" x2="590" y2="480"/><line x1="250" y1="508" x2="300" y2="508"/><line x1="540" y1="508" x2="590" y2="508"/><line x1="250" y1="536" x2="300" y2="536"/><line x1="540" y1="536" x2="590" y2="536"/><line x1="250" y1="564" x2="300" y2="564"/><line x1="540" y1="564" x2="590" y2="564"/><line x1="250" y1="592" x2="300" y2="592"/><line x1="540" y1="592" x2="590" y2="592"/><line x1="250" y1="620" x2="300" y2="620"/><line x1="540" y1="620" x2="590" y2="620"/></g><text x="420" y="775" text-anchor="middle" fill="#f49ab3" font-family="system-ui" font-size="22" font-weight="650">Rejected alpha</text><text x="420" y="805" text-anchor="middle" fill="#bca6af" font-family="system-ui" font-size="15">Rounded slab, narrow ribs, heavy label frame</text><rect x="830" y="140" width="700" height="680" rx="26" fill="#11171a" stroke="#24403d"/><g id="clean-rebuild-comparison" transform="translate(1180 735) scale(5.7 -5.7)"><path d="M -64 0 L 64 0 L 66.5 1.2 L 68 4.2 L 68 77.5 L 66.8 80 L 44 81.5 L 42.4 83 L 42.4 85.8 L 40.5 88 L -40.5 88 L -42.4 85.8 L -42.4 83 L -44 81.5 L -66.8 80 L -68 77.5 L -68 4.2 L -66.5 1.2 Z" fill="#aeb2bb" stroke="#d8dbe2" stroke-width=".7"/><rect x="-42.6" y="45.9" width="85.2" height="40.7" rx="5" fill="#c3c6cd"/><rect x="-41.5" y="47" width="83" height="38.5" rx="4.2" fill="#9298a5"/><path d="M -41.5 41 H 41.5 V 38.6 H 39.1 V 4 H 41.5 V 41 Z M -41.5 38.6 H -39.1 V 4 H -41.5 Z" fill="#c1c4cb"/><rect x="-35" y="26.8" width="70" height="5.2" rx="2.6" fill="#7f8693"/><rect x="-.6" y="13.8" width="1.2" height="13" rx=".5" fill="#c1c4cb"/><rect x="-66.55" y="16.80" width="23.6" height="1.4" rx=".6" fill="#737987"/><rect x="42.95" y="16.80" width="23.6" height="1.4" rx=".6" fill="#737987"/><rect x="-66.55" y="30.80" width="23.6" height="1.4" rx=".6" fill="#737987"/><rect x="42.95" y="30.80" width="23.6" height="1.4" rx=".6" fill="#737987"/><rect x="-66.55" y="44.80" width="23.6" height="1.4" rx=".6" fill="#737987"/><rect x="42.95" y="44.80" width="23.6" height="1.4" rx=".6" fill="#737987"/><rect x="-66.55" y="58.80" width="23.6" height="1.4" rx=".6" fill="#737987"/><rect x="42.95" y="58.80" width="23.6" height="1.4" rx=".6" fill="#737987"/><rect x="-66.55" y="72.80" width="23.6" height="1.4" rx=".6" fill="#737987"/><rect x="42.95" y="72.80" width="23.6" height="1.4" rx=".6" fill="#737987"/><circle cx="-54.5" cy="10" r="3.1" fill="#707784"/><circle cx="54.5" cy="10" r="3.1" fill="#707784"/></g><text x="1180" y="775" text-anchor="middle" fill="#7ce8d8" font-family="system-ui" font-size="22" font-weight="650">M2.2 clean rebuild</text><text x="1180" y="805" text-anchor="middle" fill="#a8c0bc" font-family="system-ui" font-size="15">Stepped top, broad wings, five full-width grooves</text></svg>
