<svg xmlns="http://www.w3.org/2000/svg" width="1600" height="900" viewBox="0 0 1600 900"><title>M2.2 front clay review</title><rect width="100%" height="100%" fill="#080a0f"/><text x="80" y="66" fill="#f4f6fb" font-family="system-ui" font-size="34" font-weight="700">M2.2 front clay review</text><text x="80" y="98" fill="#98a2b5" font-family="system-ui" font-size="17">Provisional clean rebuild, neutral clay, no label art, no console</text><rect x="60" y="135" width="1480" height="700" rx="28" fill="#11151e" stroke="#242b38"/><g id="front-clay" transform="translate(420 720) scale(5.6 -5.6)"><path d="M -64 0 L 64 0 L 66.5 1.2 L 68 4.2 L 68 77.5 L 66.8 80 L 44 81.5 L 42.4 83 L 42.4 85.8 L 40.5 88 L -40.5 88 L -42.4 85.8 L -42.4 83 L -44 81.5 L -66.8 80 L -68 77.5 L -68 4.2 L -66.5 1.2 Z" fill="#aeb2bb" stroke="#d8dbe2" stroke-width=".7"/><rect x="-42.6" y="45.9" width="85.2" height="40.7" rx="5" fill="#c3c6cd"/><rect x="-41.5" y="47" width="83" height="38.5" rx="4.2" fill="#9298a5"/><path d="M -41.5 41 H 41.5 V 38.6 H 39.1 V 4 H 41.5 V 41 Z M -41.5 38.6 H -39.1 V 4 H -41.5 Z" fill="#c1c4cb"/><rect x="-35" y="26.8" width="70" height="5.2" rx="2.6" fill="#7f8693"/><rect x="-.6" y="13.8" width="1.2" height="13" rx=".5" fill="#c1c4cb"/><rect x="-66.55" y="16.80" width="23.6" height="1.4" rx=".6" fill="#737987"/><rect x="42.95" y="16.80" width="23.6" height="1.4" rx=".6" fill="#737987"/><rect x="-66.55" y="30.80" width="23.6" height="1.4" rx=".6" fill="#737987"/><rect x="42.95" y="30.80" width="23.6" height="1.4" rx=".6" fill="#737987"/><rect x="-66.55" y="44.80" width="23.6" height="1.4" rx=".6" fill="#737987"/><rect x="42.95" y="44.80" width="23.6" height="1.4" rx=".6" fill="#737987"/><rect x="-66.55" y="58.80" width="23.6" height="1.4" rx=".6" fill="#737987"/><rect x="42.95" y="58.80" width="23.6" height="1.4" rx=".6" fill="#737987"/><rect x="-66.55" y="72.80" width="23.6" height="1.4" rx=".6" fill="#737987"/><rect x="42.95" y="72.80" width="23.6" height="1.4" rx=".6" fill="#737987"/><circle cx="-54.5" cy="10" r="3.1" fill="#707784"/><circle cx="54.5" cy="10" r="3.1" fill="#707784"/></g><text x="420" y="790" text-anchor="middle" fill="#f4f6fb" font-family="system-ui" font-size="24" font-weight="650">Front orthographic</text><g transform="translate(1130 710) skewY(-7) scale(.96 1)"><g id="three-quarter-clay" transform="translate(0 0) scale(5.5 -5.5)"><path d="M -64 0 L 64 0 L 66.5 1.2 L 68 4.2 L 68 77.5 L 66.8 80 L 44 81.5 L 42.4 83 L 42.4 85.8 L 40.5 88 L -40.5 88 L -42.4 85.8 L -42.4 83 L -44 81.5 L -66.8 80 L -68 77.5 L -68 4.2 L -66.5 1.2 Z" fill="#aeb2bb" stroke="#d8dbe2" stroke-width=".7"/><rect x="-42.6" y="45.9" width="85.2" height="40.7" rx="5" fill="#c3c6cd"/><rect x="-41.5" y="47" width="83" height="38.5" rx="4.2" fill="#9298a5"/><path d="M -41.5 41 H 41.5 V 38.6 H 39.1 V 4 H 41.5 V 41 Z M -41.5 38.6 H -39.1 V 4 H -41.5 Z" fill="#c1c4cb"/><rect x="-35" y="26.8" width="70" height="5.2" rx="2.6" fill="#7f8693"/><rect x="-.6" y="13.8" width="1.2" height="13" rx=".5" fill="#c1c4cb"/><rect x="-66.55" y="16.80" width="23.6" height="1.4" rx=".6" fill="#737987"/><rect x="42.95" y="16.80" width="23.6" height="1.4" rx=".6" fill="#737987"/><rect x="-66.55" y="30.80" width="23.6" height="1.4" rx=".6" fill="#737987"/><rect x="42.95" y="30.80" width="23.6" height="1.4" rx=".6" fill="#737987"/><rect x="-66.55" y="44.80" width="23.6" height="1.4" rx=".6" fill="#737987"/><rect x="42.95" y="44.80" width="23.6" height="1.4" rx=".6" fill="#737987"/><rect x="-66.55" y="58.80" width="23.6" height="1.4" rx=".6" fill="#737987"/><rect x="42.95" y="58.80" width="23.6" height="1.4" rx=".6" fill="#737987"/><rect x="-66.55" y="72.80" width="23.6" height="1.4" rx=".6" fill="#737987"/><rect x="42.95" y="72.80" width="23.6" height="1.4" rx=".6" fill="#737987"/><circle cx="-54.5" cy="10" r="3.1" fill="#707784"/><circle cx="54.5" cy="10" r="3.1" fill="#707784"/></g></g><path d="M 1488 215 L 1530 244 L 1530 704 L 1488 720 Z" fill="#777e8b" opacity=".8"/><text x="1130" y="790" text-anchor="middle" fill="#f4f6fb" font-family="system-ui" font-size="24" font-weight="650">Front three-quarter mass check</text><text x="800" y="855" text-anchor="middle" fill="#a8b1c2" font-family="system-ui" font-size="16">Stepped top, broad side wings, five grooves, shallow label recess, lower grip field, screw wells</text></svg>
