<svg xmlns="http://www.w3.org/2000/svg" width="1600" height="900" viewBox="0 0 1600 900"><title>M2.2 v2 continuous front-shell review</title><rect width="100%" height="100%" fill="#080a0f"/><text x="80" y="66" fill="#f4f6fb" font-family="system-ui" font-size="34" font-weight="700">M2.2 v2 continuous front-shell review</text><text x="80" y="98" fill="#98a2b5" font-family="system-ui" font-size="17">Provisional clean rebuild; physical calibration and owner approval remain open</text><rect x="60" y="135" width="1480" height="700" rx="28" fill="#11151e"/><path d="M 136.00 745.00 L 904.00 745.00 L 919.00 737.80 L 928.00 719.80 L 928.00 280.00 L 920.80 264.40 L 904.00 256.00 L 784.00 256.00 L 774.40 247.60 L 774.40 230.20 L 763.00 217.00 L 277.00 217.00 L 265.60 230.20 L 265.60 247.60 L 256.00 256.00 L 136.00 256.00 L 119.20 264.40 L 112.00 280.00 L 112.00 719.80 L 121.00 737.80 Z" fill="#aeb2bb" stroke="#d8dbe2" stroke-width="3"/><rect x="271" y="232" width="498" height="231" rx="24" fill="#8f96a3"/><text x="1030" y="270" fill="#f4f6fb" font-family="system-ui" font-size="22">one connected molded surface</text><text x="1030" y="315" fill="#a8b1c2" font-family="system-ui" font-size="18">integrated label recess, channel, grooves and screw wells</text></svg>
