# RetroLife M2.2 v5 label surface
# SPDX-License-Identifier: CC0-1.0
o label_surface_v5
v 0.000000000 0.064000000 0.009598000
v -0.040250000 0.045000000 0.009598000
v 0.040250000 0.045000000 0.009598000
v 0.040473929 0.045012576 0.009598000
v 0.040695042 0.045050144 0.009598000
v 0.040910558 0.045112233 0.009598000
v 0.041117767 0.045198062 0.009598000
v 0.041314064 0.045306552 0.009598000
v 0.041496980 0.045436337 0.009598000
v 0.041664214 0.045585786 0.009598000
v 0.041813663 0.045753020 0.009598000
v 0.041943448 0.045935936 0.009598000
v 0.042051938 0.046132233 0.009598000
v 0.042137767 0.046339442 0.009598000
v 0.042199856 0.046554958 0.009598000
v 0.042237424 0.046776071 0.009598000
v 0.042250000 0.047000000 0.009598000
v 0.042250000 0.081000000 0.009598000
v 0.042237424 0.081223929 0.009598000
v 0.042199856 0.081445042 0.009598000
v 0.042137767 0.081660558 0.009598000
v 0.042051938 0.081867767 0.009598000
v 0.041943448 0.082064064 0.009598000
v 0.041813663 0.082246980 0.009598000
v 0.041664214 0.082414214 0.009598000
v 0.041496980 0.082563663 0.009598000
v 0.041314064 0.082693448 0.009598000
v 0.041117767 0.082801938 0.009598000
v 0.040910558 0.082887767 0.009598000
v 0.040695042 0.082949856 0.009598000
v 0.040473929 0.082987424 0.009598000
v 0.040250000 0.083000000 0.009598000
v -0.040250000 0.083000000 0.009598000
v -0.040473929 0.082987424 0.009598000
v -0.040695042 0.082949856 0.009598000
v -0.040910558 0.082887767 0.009598000
v -0.041117767 0.082801938 0.009598000
v -0.041314064 0.082693448 0.009598000
v -0.041496980 0.082563663 0.009598000
v -0.041664214 0.082414214 0.009598000
v -0.041813663 0.082246980 0.009598000
v -0.041943448 0.082064064 0.009598000
v -0.042051938 0.081867767 0.009598000
v -0.042137767 0.081660558 0.009598000
v -0.042199856 0.081445042 0.009598000
v -0.042237424 0.081223929 0.009598000
v -0.042250000 0.081000000 0.009598000
v -0.042250000 0.047000000 0.009598000
v -0.042237424 0.046776071 0.009598000
v -0.042199856 0.046554958 0.009598000
v -0.042137767 0.046339442 0.009598000
v -0.042051938 0.046132233 0.009598000
v -0.041943448 0.045935936 0.009598000
v -0.041813663 0.045753020 0.009598000
v -0.041664214 0.045585786 0.009598000
v -0.041496980 0.045436337 0.009598000
v -0.041314064 0.045306552 0.009598000
v -0.041117767 0.045198062 0.009598000
v -0.040910558 0.045112233 0.009598000
v -0.040695042 0.045050144 0.009598000
v -0.040473929 0.045012576 0.009598000
vt 0.500000000 0.500000000
vt 0.023668639 0.000000000
vt 0.976331361 0.000000000
vt 0.978981408 0.000330936
vt 0.981598129 0.001319584
vt 0.984148617 0.002953509
vt 0.986600799 0.005212165
vt 0.988923836 0.008067147
vt 0.991088516 0.011482554
vt 0.993067616 0.015415433
vt 0.994836248 0.019816326
vt 0.996372170 0.024629891
vt 0.997656068 0.029795593
vt 0.998671795 0.035248470
vt 0.999406578 0.040919951
vt 0.999851177 0.046738712
vt 1.000000000 0.052631579
vt 1.000000000 0.947368421
vt 0.999851177 0.953261288
vt 0.999406578 0.959080049
vt 0.998671795 0.964751530
vt 0.997656068 0.970204407
vt 0.996372170 0.975370109
vt 0.994836248 0.980183674
vt 0.993067616 0.984584567
vt 0.991088516 0.988517446
vt 0.988923836 0.991932853
vt 0.986600799 0.994787835
vt 0.984148617 0.997046491
vt 0.981598129 0.998680416
vt 0.978981408 0.999669064
vt 0.976331361 1.000000000
vt 0.023668639 1.000000000
vt 0.021018592 0.999669064
vt 0.018401871 0.998680416
vt 0.015851383 0.997046491
vt 0.013399201 0.994787835
vt 0.011076164 0.991932853
vt 0.008911484 0.988517446
vt 0.006932384 0.984584567
vt 0.005163752 0.980183674
vt 0.003627830 0.975370109
vt 0.002343932 0.970204407
vt 0.001328205 0.964751530
vt 0.000593422 0.959080049
vt 0.000148823 0.953261288
vt 0.000000000 0.947368421
vt 0.000000000 0.052631579
vt 0.000148823 0.046738712
vt 0.000593422 0.040919951
vt 0.001328205 0.035248470
vt 0.002343932 0.029795593
vt 0.003627830 0.024629891
vt 0.005163752 0.019816326
vt 0.006932384 0.015415433
vt 0.008911484 0.011482554
vt 0.011076164 0.008067147
vt 0.013399201 0.005212165
vt 0.015851383 0.002953509
vt 0.018401871 0.001319584
vt 0.021018592 0.000330936
vn 0.000000000 0.000000000 1.000000000
f 1/1/1 2/2/1 3/3/1
f 1/1/1 3/3/1 4/4/1
f 1/1/1 4/4/1 5/5/1
f 1/1/1 5/5/1 6/6/1
f 1/1/1 6/6/1 7/7/1
f 1/1/1 7/7/1 8/8/1
f 1/1/1 8/8/1 9/9/1
f 1/1/1 9/9/1 10/10/1
f 1/1/1 10/10/1 11/11/1
f 1/1/1 11/11/1 12/12/1
f 1/1/1 12/12/1 13/13/1
f 1/1/1 13/13/1 14/14/1
f 1/1/1 14/14/1 15/15/1
f 1/1/1 15/15/1 16/16/1
f 1/1/1 16/16/1 17/17/1
f 1/1/1 17/17/1 18/18/1
f 1/1/1 18/18/1 19/19/1
f 1/1/1 19/19/1 20/20/1
f 1/1/1 20/20/1 21/21/1
f 1/1/1 21/21/1 22/22/1
f 1/1/1 22/22/1 23/23/1
f 1/1/1 23/23/1 24/24/1
f 1/1/1 24/24/1 25/25/1
f 1/1/1 25/25/1 26/26/1
f 1/1/1 26/26/1 27/27/1
f 1/1/1 27/27/1 28/28/1
f 1/1/1 28/28/1 29/29/1
f 1/1/1 29/29/1 30/30/1
f 1/1/1 30/30/1 31/31/1
f 1/1/1 31/31/1 32/32/1
f 1/1/1 32/32/1 33/33/1
f 1/1/1 33/33/1 34/34/1
f 1/1/1 34/34/1 35/35/1
f 1/1/1 35/35/1 36/36/1
f 1/1/1 36/36/1 37/37/1
f 1/1/1 37/37/1 38/38/1
f 1/1/1 38/38/1 39/39/1
f 1/1/1 39/39/1 40/40/1
f 1/1/1 40/40/1 41/41/1
f 1/1/1 41/41/1 42/42/1
f 1/1/1 42/42/1 43/43/1
f 1/1/1 43/43/1 44/44/1
f 1/1/1 44/44/1 45/45/1
f 1/1/1 45/45/1 46/46/1
f 1/1/1 46/46/1 47/47/1
f 1/1/1 47/47/1 48/48/1
f 1/1/1 48/48/1 49/49/1
f 1/1/1 49/49/1 50/50/1
f 1/1/1 50/50/1 51/51/1
f 1/1/1 51/51/1 52/52/1
f 1/1/1 52/52/1 53/53/1
f 1/1/1 53/53/1 54/54/1
f 1/1/1 54/54/1 55/55/1
f 1/1/1 55/55/1 56/56/1
f 1/1/1 56/56/1 57/57/1
f 1/1/1 57/57/1 58/58/1
f 1/1/1 58/58/1 59/59/1
f 1/1/1 59/59/1 60/60/1
f 1/1/1 60/60/1 61/61/1
f 1/1/1 61/61/1 2/2/1
