# front_shell
# SPDX-License-Identifier: CC0-1.0
o front_shell
v -0.063416471 0.000620000 0.000000000
v 0.063416471 0.000620000 0.000000000
v 0.065893676 0.001807232 0.000000000
v 0.067380000 0.004775311 0.000000000
v 0.067380000 0.077295390 0.000000000
v 0.066190941 0.079867726 0.000000000
v 0.063416471 0.081252830 0.000000000
v 0.043598824 0.081252830 0.000000000
v 0.042013412 0.082637934 0.000000000
v 0.042013412 0.085507077 0.000000000
v 0.040130735 0.087683669 0.000000000
v -0.040130735 0.087683669 0.000000000
v -0.042013412 0.085507077 0.000000000
v -0.042013412 0.082637934 0.000000000
v -0.043598824 0.081252830 0.000000000
v -0.063416471 0.081252830 0.000000000
v -0.066190941 0.079867726 0.000000000
v -0.067380000 0.077295390 0.000000000
v -0.067380000 0.004775311 0.000000000
v -0.065893676 0.001807232 0.000000000
v -0.064000000 0.000000000 0.000620000
v 0.064000000 0.000000000 0.000620000
v 0.066500000 0.001200000 0.000620000
v 0.068000000 0.004200000 0.000620000
v 0.068000000 0.077500000 0.000620000
v 0.066800000 0.080100000 0.000620000
v 0.064000000 0.081500000 0.000620000
v 0.044000000 0.081500000 0.000620000
v 0.042400000 0.082900000 0.000620000
v 0.042400000 0.085800000 0.000620000
v 0.040500000 0.088000000 0.000620000
v -0.040500000 0.088000000 0.000620000
v -0.042400000 0.085800000 0.000620000
v -0.042400000 0.082900000 0.000620000
v -0.044000000 0.081500000 0.000620000
v -0.064000000 0.081500000 0.000620000
v -0.066800000 0.080100000 0.000620000
v -0.068000000 0.077500000 0.000620000
v -0.068000000 0.004200000 0.000620000
v -0.066500000 0.001200000 0.000620000
v -0.064000000 0.000000000 0.009780000
v 0.064000000 0.000000000 0.009780000
v 0.066500000 0.001200000 0.009780000
v 0.068000000 0.004200000 0.009780000
v 0.068000000 0.077500000 0.009780000
v 0.066800000 0.080100000 0.009780000
v 0.064000000 0.081500000 0.009780000
v 0.044000000 0.081500000 0.009780000
v 0.042400000 0.082900000 0.009780000
v 0.042400000 0.085800000 0.009780000
v 0.040500000 0.088000000 0.009780000
v -0.040500000 0.088000000 0.009780000
v -0.042400000 0.085800000 0.009780000
v -0.042400000 0.082900000 0.009780000
v -0.044000000 0.081500000 0.009780000
v -0.064000000 0.081500000 0.009780000
v -0.066800000 0.080100000 0.009780000
v -0.068000000 0.077500000 0.009780000
v -0.068000000 0.004200000 0.009780000
v -0.066500000 0.001200000 0.009780000
v -0.063416471 0.000620000 0.010400000
v 0.063416471 0.000620000 0.010400000
v 0.065893676 0.001807232 0.010400000
v 0.067380000 0.004775311 0.010400000
v 0.067380000 0.077295390 0.010400000
v 0.066190941 0.079867726 0.010400000
v 0.063416471 0.081252830 0.010400000
v 0.043598824 0.081252830 0.010400000
v 0.042013412 0.082637934 0.010400000
v 0.042013412 0.085507077 0.010400000
v 0.040130735 0.087683669 0.010400000
v -0.040130735 0.087683669 0.010400000
v -0.042013412 0.085507077 0.010400000
v -0.042013412 0.082637934 0.010400000
v -0.043598824 0.081252830 0.010400000
v -0.063416471 0.081252830 0.010400000
v -0.066190941 0.079867726 0.010400000
v -0.067380000 0.077295390 0.010400000
v -0.067380000 0.004775311 0.010400000
v -0.065893676 0.001807232 0.010400000
v 0.000000000 0.058270000 0.000000000
v 0.000000000 0.058270000 0.010400000
f 1 2 22
f 1 22 21
f 2 3 23
f 2 23 22
f 3 4 24
f 3 24 23
f 4 5 25
f 4 25 24
f 5 6 26
f 5 26 25
f 6 7 27
f 6 27 26
f 7 8 28
f 7 28 27
f 8 9 29
f 8 29 28
f 9 10 30
f 9 30 29
f 10 11 31
f 10 31 30
f 11 12 32
f 11 32 31
f 12 13 33
f 12 33 32
f 13 14 34
f 13 34 33
f 14 15 35
f 14 35 34
f 15 16 36
f 15 36 35
f 16 17 37
f 16 37 36
f 17 18 38
f 17 38 37
f 18 19 39
f 18 39 38
f 19 20 40
f 19 40 39
f 20 1 21
f 20 21 40
f 21 22 42
f 21 42 41
f 22 23 43
f 22 43 42
f 23 24 44
f 23 44 43
f 24 25 45
f 24 45 44
f 25 26 46
f 25 46 45
f 26 27 47
f 26 47 46
f 27 28 48
f 27 48 47
f 28 29 49
f 28 49 48
f 29 30 50
f 29 50 49
f 30 31 51
f 30 51 50
f 31 32 52
f 31 52 51
f 32 33 53
f 32 53 52
f 33 34 54
f 33 54 53
f 34 35 55
f 34 55 54
f 35 36 56
f 35 56 55
f 36 37 57
f 36 57 56
f 37 38 58
f 37 58 57
f 38 39 59
f 38 59 58
f 39 40 60
f 39 60 59
f 40 21 41
f 40 41 60
f 41 42 62
f 41 62 61
f 42 43 63
f 42 63 62
f 43 44 64
f 43 64 63
f 44 45 65
f 44 65 64
f 45 46 66
f 45 66 65
f 46 47 67
f 46 67 66
f 47 48 68
f 47 68 67
f 48 49 69
f 48 69 68
f 49 50 70
f 49 70 69
f 50 51 71
f 50 71 70
f 51 52 72
f 51 72 71
f 52 53 73
f 52 73 72
f 53 54 74
f 53 74 73
f 54 55 75
f 54 75 74
f 55 56 76
f 55 76 75
f 56 57 77
f 56 77 76
f 57 58 78
f 57 78 77
f 58 59 79
f 58 79 78
f 59 60 80
f 59 80 79
f 60 41 61
f 60 61 80
f 81 2 1
f 82 61 62
f 81 3 2
f 82 62 63
f 81 4 3
f 82 63 64
f 81 5 4
f 82 64 65
f 81 6 5
f 82 65 66
f 81 7 6
f 82 66 67
f 81 8 7
f 82 67 68
f 81 9 8
f 82 68 69
f 81 10 9
f 82 69 70
f 81 11 10
f 82 70 71
f 81 12 11
f 82 71 72
f 81 13 12
f 82 72 73
f 81 14 13
f 82 73 74
f 81 15 14
f 82 74 75
f 81 16 15
f 82 75 76
f 81 17 16
f 82 76 77
f 81 18 17
f 82 77 78
f 81 19 18
f 82 78 79
f 81 20 19
f 82 79 80
f 81 1 20
f 82 80 61
