# RetroLife M2.2 v4 label surface
# SPDX-License-Identifier: CC0-1.0
o label_surface_v4
v 0.000000000 0.066500000 0.009488000
v -0.041950000 0.047000000 0.009488000
v 0.041950000 0.047000000 0.009488000
v 0.042375465 0.047023894 0.009488000
v 0.042795580 0.047095274 0.009488000
v 0.043205060 0.047213243 0.009488000
v 0.043598758 0.047376318 0.009488000
v 0.043971722 0.047582448 0.009488000
v 0.044319261 0.047829040 0.009488000
v 0.044637006 0.048112994 0.009488000
v 0.044920960 0.048430739 0.009488000
v 0.045167552 0.048778278 0.009488000
v 0.045373682 0.049151242 0.009488000
v 0.045536757 0.049544940 0.009488000
v 0.045654726 0.049954420 0.009488000
v 0.045726106 0.050374535 0.009488000
v 0.045750000 0.050800000 0.009488000
v 0.045750000 0.082200000 0.009488000
v 0.045726106 0.082625465 0.009488000
v 0.045654726 0.083045580 0.009488000
v 0.045536757 0.083455060 0.009488000
v 0.045373682 0.083848758 0.009488000
v 0.045167552 0.084221722 0.009488000
v 0.044920960 0.084569261 0.009488000
v 0.044637006 0.084887006 0.009488000
v 0.044319261 0.085170960 0.009488000
v 0.043971722 0.085417552 0.009488000
v 0.043598758 0.085623682 0.009488000
v 0.043205060 0.085786757 0.009488000
v 0.042795580 0.085904726 0.009488000
v 0.042375465 0.085976106 0.009488000
v 0.041950000 0.086000000 0.009488000
v -0.041950000 0.086000000 0.009488000
v -0.042375465 0.085976106 0.009488000
v -0.042795580 0.085904726 0.009488000
v -0.043205060 0.085786757 0.009488000
v -0.043598758 0.085623682 0.009488000
v -0.043971722 0.085417552 0.009488000
v -0.044319261 0.085170960 0.009488000
v -0.044637006 0.084887006 0.009488000
v -0.044920960 0.084569261 0.009488000
v -0.045167552 0.084221722 0.009488000
v -0.045373682 0.083848758 0.009488000
v -0.045536757 0.083455060 0.009488000
v -0.045654726 0.083045580 0.009488000
v -0.045726106 0.082625465 0.009488000
v -0.045750000 0.082200000 0.009488000
v -0.045750000 0.050800000 0.009488000
v -0.045726106 0.050374535 0.009488000
v -0.045654726 0.049954420 0.009488000
v -0.045536757 0.049544940 0.009488000
v -0.045373682 0.049151242 0.009488000
v -0.045167552 0.048778278 0.009488000
v -0.044920960 0.048430739 0.009488000
v -0.044637006 0.048112994 0.009488000
v -0.044319261 0.047829040 0.009488000
v -0.043971722 0.047582448 0.009488000
v -0.043598758 0.047376318 0.009488000
v -0.043205060 0.047213243 0.009488000
v -0.042795580 0.047095274 0.009488000
v -0.042375465 0.047023894 0.009488000
vt 0.500000000 0.500000000
vt 0.041530055 0.000000000
vt 0.958469945 0.000000000
vt 0.963119836 0.000612656
vt 0.967711252 0.002442921
vt 0.972186453 0.005467778
vt 0.976489161 0.009649187
vt 0.980565267 0.014934565
vt 0.984363511 0.021257445
vt 0.987836129 0.028538314
vt 0.990939450 0.036685609
vt 0.993634448 0.045596875
vt 0.995887232 0.055160046
vt 0.997669472 0.065254861
vt 0.998958755 0.075754371
vt 0.999738868 0.086526538
vt 1.000000000 0.097435897
vt 1.000000000 0.902564103
vt 0.999738868 0.913473462
vt 0.998958755 0.924245629
vt 0.997669472 0.934745139
vt 0.995887232 0.944839954
vt 0.993634448 0.954403125
vt 0.990939450 0.963314391
vt 0.987836129 0.971461686
vt 0.984363511 0.978742555
vt 0.980565267 0.985065435
vt 0.976489161 0.990350813
vt 0.972186453 0.994532222
vt 0.967711252 0.997557079
vt 0.963119836 0.999387344
vt 0.958469945 1.000000000
vt 0.041530055 1.000000000
vt 0.036880164 0.999387344
vt 0.032288748 0.997557079
vt 0.027813547 0.994532222
vt 0.023510839 0.990350813
vt 0.019434733 0.985065435
vt 0.015636489 0.978742555
vt 0.012163871 0.971461686
vt 0.009060550 0.963314391
vt 0.006365552 0.954403125
vt 0.004112768 0.944839954
vt 0.002330528 0.934745139
vt 0.001041245 0.924245629
vt 0.000261132 0.913473462
vt 0.000000000 0.902564103
vt 0.000000000 0.097435897
vt 0.000261132 0.086526538
vt 0.001041245 0.075754371
vt 0.002330528 0.065254861
vt 0.004112768 0.055160046
vt 0.006365552 0.045596875
vt 0.009060550 0.036685609
vt 0.012163871 0.028538314
vt 0.015636489 0.021257445
vt 0.019434733 0.014934565
vt 0.023510839 0.009649187
vt 0.027813547 0.005467778
vt 0.032288748 0.002442921
vt 0.036880164 0.000612656
vn 0.000000000 0.000000000 1.000000000
f 1/1/1 2/2/1 3/3/1
f 1/1/1 3/3/1 4/4/1
f 1/1/1 4/4/1 5/5/1
f 1/1/1 5/5/1 6/6/1
f 1/1/1 6/6/1 7/7/1
f 1/1/1 7/7/1 8/8/1
f 1/1/1 8/8/1 9/9/1
f 1/1/1 9/9/1 10/10/1
f 1/1/1 10/10/1 11/11/1
f 1/1/1 11/11/1 12/12/1
f 1/1/1 12/12/1 13/13/1
f 1/1/1 13/13/1 14/14/1
f 1/1/1 14/14/1 15/15/1
f 1/1/1 15/15/1 16/16/1
f 1/1/1 16/16/1 17/17/1
f 1/1/1 17/17/1 18/18/1
f 1/1/1 18/18/1 19/19/1
f 1/1/1 19/19/1 20/20/1
f 1/1/1 20/20/1 21/21/1
f 1/1/1 21/21/1 22/22/1
f 1/1/1 22/22/1 23/23/1
f 1/1/1 23/23/1 24/24/1
f 1/1/1 24/24/1 25/25/1
f 1/1/1 25/25/1 26/26/1
f 1/1/1 26/26/1 27/27/1
f 1/1/1 27/27/1 28/28/1
f 1/1/1 28/28/1 29/29/1
f 1/1/1 29/29/1 30/30/1
f 1/1/1 30/30/1 31/31/1
f 1/1/1 31/31/1 32/32/1
f 1/1/1 32/32/1 33/33/1
f 1/1/1 33/33/1 34/34/1
f 1/1/1 34/34/1 35/35/1
f 1/1/1 35/35/1 36/36/1
f 1/1/1 36/36/1 37/37/1
f 1/1/1 37/37/1 38/38/1
f 1/1/1 38/38/1 39/39/1
f 1/1/1 39/39/1 40/40/1
f 1/1/1 40/40/1 41/41/1
f 1/1/1 41/41/1 42/42/1
f 1/1/1 42/42/1 43/43/1
f 1/1/1 43/43/1 44/44/1
f 1/1/1 44/44/1 45/45/1
f 1/1/1 45/45/1 46/46/1
f 1/1/1 46/46/1 47/47/1
f 1/1/1 47/47/1 48/48/1
f 1/1/1 48/48/1 49/49/1
f 1/1/1 49/49/1 50/50/1
f 1/1/1 50/50/1 51/51/1
f 1/1/1 51/51/1 52/52/1
f 1/1/1 52/52/1 53/53/1
f 1/1/1 53/53/1 54/54/1
f 1/1/1 54/54/1 55/55/1
f 1/1/1 55/55/1 56/56/1
f 1/1/1 56/56/1 57/57/1
f 1/1/1 57/57/1 58/58/1
f 1/1/1 58/58/1 59/59/1
f 1/1/1 59/59/1 60/60/1
f 1/1/1 60/60/1 61/61/1
f 1/1/1 61/61/1 2/2/1
