# screw_wells
# SPDX-License-Identifier: CC0-1.0
o screw_wells
v -0.051900000 0.010000000 0.010360000
v -0.051922243 0.010339368 0.010360000
v -0.051988593 0.010672930 0.010360000
v -0.052097913 0.010994977 0.010360000
v -0.052248334 0.011300000 0.010360000
v -0.052437281 0.011582780 0.010360000
v -0.052661522 0.011838478 0.010360000
v -0.052917220 0.012062719 0.010360000
v -0.053200000 0.012251666 0.010360000
v -0.053505023 0.012402087 0.010360000
v -0.053827070 0.012511407 0.010360000
v -0.054160632 0.012577757 0.010360000
v -0.054500000 0.012600000 0.010360000
v -0.054839368 0.012577757 0.010360000
v -0.055172930 0.012511407 0.010360000
v -0.055494977 0.012402087 0.010360000
v -0.055800000 0.012251666 0.010360000
v -0.056082780 0.012062719 0.010360000
v -0.056338478 0.011838478 0.010360000
v -0.056562719 0.011582780 0.010360000
v -0.056751666 0.011300000 0.010360000
v -0.056902087 0.010994977 0.010360000
v -0.057011407 0.010672930 0.010360000
v -0.057077757 0.010339368 0.010360000
v -0.057100000 0.010000000 0.010360000
v -0.057077757 0.009660632 0.010360000
v -0.057011407 0.009327070 0.010360000
v -0.056902087 0.009005023 0.010360000
v -0.056751666 0.008700000 0.010360000
v -0.056562719 0.008417220 0.010360000
v -0.056338478 0.008161522 0.010360000
v -0.056082780 0.007937281 0.010360000
v -0.055800000 0.007748334 0.010360000
v -0.055494977 0.007597913 0.010360000
v -0.055172930 0.007488593 0.010360000
v -0.054839368 0.007422243 0.010360000
v -0.054500000 0.007400000 0.010360000
v -0.054160632 0.007422243 0.010360000
v -0.053827070 0.007488593 0.010360000
v -0.053505023 0.007597913 0.010360000
v -0.053200000 0.007748334 0.010360000
v -0.052917220 0.007937281 0.010360000
v -0.052661522 0.008161522 0.010360000
v -0.052437281 0.008417220 0.010360000
v -0.052248334 0.008700000 0.010360000
v -0.052097913 0.009005023 0.010360000
v -0.051988593 0.009327070 0.010360000
v -0.051922243 0.009660632 0.010360000
v -0.051900000 0.010000000 0.010860000
v -0.051922243 0.010339368 0.010860000
v -0.051988593 0.010672930 0.010860000
v -0.052097913 0.010994977 0.010860000
v -0.052248334 0.011300000 0.010860000
v -0.052437281 0.011582780 0.010860000
v -0.052661522 0.011838478 0.010860000
v -0.052917220 0.012062719 0.010860000
v -0.053200000 0.012251666 0.010860000
v -0.053505023 0.012402087 0.010860000
v -0.053827070 0.012511407 0.010860000
v -0.054160632 0.012577757 0.010860000
v -0.054500000 0.012600000 0.010860000
v -0.054839368 0.012577757 0.010860000
v -0.055172930 0.012511407 0.010860000
v -0.055494977 0.012402087 0.010860000
v -0.055800000 0.012251666 0.010860000
v -0.056082780 0.012062719 0.010860000
v -0.056338478 0.011838478 0.010860000
v -0.056562719 0.011582780 0.010860000
v -0.056751666 0.011300000 0.010860000
v -0.056902087 0.010994977 0.010860000
v -0.057011407 0.010672930 0.010860000
v -0.057077757 0.010339368 0.010860000
v -0.057100000 0.010000000 0.010860000
v -0.057077757 0.009660632 0.010860000
v -0.057011407 0.009327070 0.010860000
v -0.056902087 0.009005023 0.010860000
v -0.056751666 0.008700000 0.010860000
v -0.056562719 0.008417220 0.010860000
v -0.056338478 0.008161522 0.010860000
v -0.056082780 0.007937281 0.010860000
v -0.055800000 0.007748334 0.010860000
v -0.055494977 0.007597913 0.010860000
v -0.055172930 0.007488593 0.010860000
v -0.054839368 0.007422243 0.010860000
v -0.054500000 0.007400000 0.010860000
v -0.054160632 0.007422243 0.010860000
v -0.053827070 0.007488593 0.010860000
v -0.053505023 0.007597913 0.010860000
v -0.053200000 0.007748334 0.010860000
v -0.052917220 0.007937281 0.010860000
v -0.052661522 0.008161522 0.010860000
v -0.052437281 0.008417220 0.010860000
v -0.052248334 0.008700000 0.010860000
v -0.052097913 0.009005023 0.010860000
v -0.051988593 0.009327070 0.010860000
v -0.051922243 0.009660632 0.010860000
v -0.054500000 0.010000000 0.010360000
v -0.054500000 0.010000000 0.010860000
v 0.057100000 0.010000000 0.010360000
v 0.057077757 0.010339368 0.010360000
v 0.057011407 0.010672930 0.010360000
v 0.056902087 0.010994977 0.010360000
v 0.056751666 0.011300000 0.010360000
v 0.056562719 0.011582780 0.010360000
v 0.056338478 0.011838478 0.010360000
v 0.056082780 0.012062719 0.010360000
v 0.055800000 0.012251666 0.010360000
v 0.055494977 0.012402087 0.010360000
v 0.055172930 0.012511407 0.010360000
v 0.054839368 0.012577757 0.010360000
v 0.054500000 0.012600000 0.010360000
v 0.054160632 0.012577757 0.010360000
v 0.053827070 0.012511407 0.010360000
v 0.053505023 0.012402087 0.010360000
v 0.053200000 0.012251666 0.010360000
v 0.052917220 0.012062719 0.010360000
v 0.052661522 0.011838478 0.010360000
v 0.052437281 0.011582780 0.010360000
v 0.052248334 0.011300000 0.010360000
v 0.052097913 0.010994977 0.010360000
v 0.051988593 0.010672930 0.010360000
v 0.051922243 0.010339368 0.010360000
v 0.051900000 0.010000000 0.010360000
v 0.051922243 0.009660632 0.010360000
v 0.051988593 0.009327070 0.010360000
v 0.052097913 0.009005023 0.010360000
v 0.052248334 0.008700000 0.010360000
v 0.052437281 0.008417220 0.010360000
v 0.052661522 0.008161522 0.010360000
v 0.052917220 0.007937281 0.010360000
v 0.053200000 0.007748334 0.010360000
v 0.053505023 0.007597913 0.010360000
v 0.053827070 0.007488593 0.010360000
v 0.054160632 0.007422243 0.010360000
v 0.054500000 0.007400000 0.010360000
v 0.054839368 0.007422243 0.010360000
v 0.055172930 0.007488593 0.010360000
v 0.055494977 0.007597913 0.010360000
v 0.055800000 0.007748334 0.010360000
v 0.056082780 0.007937281 0.010360000
v 0.056338478 0.008161522 0.010360000
v 0.056562719 0.008417220 0.010360000
v 0.056751666 0.008700000 0.010360000
v 0.056902087 0.009005023 0.010360000
v 0.057011407 0.009327070 0.010360000
v 0.057077757 0.009660632 0.010360000
v 0.057100000 0.010000000 0.010860000
v 0.057077757 0.010339368 0.010860000
v 0.057011407 0.010672930 0.010860000
v 0.056902087 0.010994977 0.010860000
v 0.056751666 0.011300000 0.010860000
v 0.056562719 0.011582780 0.010860000
v 0.056338478 0.011838478 0.010860000
v 0.056082780 0.012062719 0.010860000
v 0.055800000 0.012251666 0.010860000
v 0.055494977 0.012402087 0.010860000
v 0.055172930 0.012511407 0.010860000
v 0.054839368 0.012577757 0.010860000
v 0.054500000 0.012600000 0.010860000
v 0.054160632 0.012577757 0.010860000
v 0.053827070 0.012511407 0.010860000
v 0.053505023 0.012402087 0.010860000
v 0.053200000 0.012251666 0.010860000
v 0.052917220 0.012062719 0.010860000
v 0.052661522 0.011838478 0.010860000
v 0.052437281 0.011582780 0.010860000
v 0.052248334 0.011300000 0.010860000
v 0.052097913 0.010994977 0.010860000
v 0.051988593 0.010672930 0.010860000
v 0.051922243 0.010339368 0.010860000
v 0.051900000 0.010000000 0.010860000
v 0.051922243 0.009660632 0.010860000
v 0.051988593 0.009327070 0.010860000
v 0.052097913 0.009005023 0.010860000
v 0.052248334 0.008700000 0.010860000
v 0.052437281 0.008417220 0.010860000
v 0.052661522 0.008161522 0.010860000
v 0.052917220 0.007937281 0.010860000
v 0.053200000 0.007748334 0.010860000
v 0.053505023 0.007597913 0.010860000
v 0.053827070 0.007488593 0.010860000
v 0.054160632 0.007422243 0.010860000
v 0.054500000 0.007400000 0.010860000
v 0.054839368 0.007422243 0.010860000
v 0.055172930 0.007488593 0.010860000
v 0.055494977 0.007597913 0.010860000
v 0.055800000 0.007748334 0.010860000
v 0.056082780 0.007937281 0.010860000
v 0.056338478 0.008161522 0.010860000
v 0.056562719 0.008417220 0.010860000
v 0.056751666 0.008700000 0.010860000
v 0.056902087 0.009005023 0.010860000
v 0.057011407 0.009327070 0.010860000
v 0.057077757 0.009660632 0.010860000
v 0.054500000 0.010000000 0.010360000
v 0.054500000 0.010000000 0.010860000
f 1 2 50
f 1 50 49
f 97 2 1
f 98 49 50
f 2 3 51
f 2 51 50
f 97 3 2
f 98 50 51
f 3 4 52
f 3 52 51
f 97 4 3
f 98 51 52
f 4 5 53
f 4 53 52
f 97 5 4
f 98 52 53
f 5 6 54
f 5 54 53
f 97 6 5
f 98 53 54
f 6 7 55
f 6 55 54
f 97 7 6
f 98 54 55
f 7 8 56
f 7 56 55
f 97 8 7
f 98 55 56
f 8 9 57
f 8 57 56
f 97 9 8
f 98 56 57
f 9 10 58
f 9 58 57
f 97 10 9
f 98 57 58
f 10 11 59
f 10 59 58
f 97 11 10
f 98 58 59
f 11 12 60
f 11 60 59
f 97 12 11
f 98 59 60
f 12 13 61
f 12 61 60
f 97 13 12
f 98 60 61
f 13 14 62
f 13 62 61
f 97 14 13
f 98 61 62
f 14 15 63
f 14 63 62
f 97 15 14
f 98 62 63
f 15 16 64
f 15 64 63
f 97 16 15
f 98 63 64
f 16 17 65
f 16 65 64
f 97 17 16
f 98 64 65
f 17 18 66
f 17 66 65
f 97 18 17
f 98 65 66
f 18 19 67
f 18 67 66
f 97 19 18
f 98 66 67
f 19 20 68
f 19 68 67
f 97 20 19
f 98 67 68
f 20 21 69
f 20 69 68
f 97 21 20
f 98 68 69
f 21 22 70
f 21 70 69
f 97 22 21
f 98 69 70
f 22 23 71
f 22 71 70
f 97 23 22
f 98 70 71
f 23 24 72
f 23 72 71
f 97 24 23
f 98 71 72
f 24 25 73
f 24 73 72
f 97 25 24
f 98 72 73
f 25 26 74
f 25 74 73
f 97 26 25
f 98 73 74
f 26 27 75
f 26 75 74
f 97 27 26
f 98 74 75
f 27 28 76
f 27 76 75
f 97 28 27
f 98 75 76
f 28 29 77
f 28 77 76
f 97 29 28
f 98 76 77
f 29 30 78
f 29 78 77
f 97 30 29
f 98 77 78
f 30 31 79
f 30 79 78
f 97 31 30
f 98 78 79
f 31 32 80
f 31 80 79
f 97 32 31
f 98 79 80
f 32 33 81
f 32 81 80
f 97 33 32
f 98 80 81
f 33 34 82
f 33 82 81
f 97 34 33
f 98 81 82
f 34 35 83
f 34 83 82
f 97 35 34
f 98 82 83
f 35 36 84
f 35 84 83
f 97 36 35
f 98 83 84
f 36 37 85
f 36 85 84
f 97 37 36
f 98 84 85
f 37 38 86
f 37 86 85
f 97 38 37
f 98 85 86
f 38 39 87
f 38 87 86
f 97 39 38
f 98 86 87
f 39 40 88
f 39 88 87
f 97 40 39
f 98 87 88
f 40 41 89
f 40 89 88
f 97 41 40
f 98 88 89
f 41 42 90
f 41 90 89
f 97 42 41
f 98 89 90
f 42 43 91
f 42 91 90
f 97 43 42
f 98 90 91
f 43 44 92
f 43 92 91
f 97 44 43
f 98 91 92
f 44 45 93
f 44 93 92
f 97 45 44
f 98 92 93
f 45 46 94
f 45 94 93
f 97 46 45
f 98 93 94
f 46 47 95
f 46 95 94
f 97 47 46
f 98 94 95
f 47 48 96
f 47 96 95
f 97 48 47
f 98 95 96
f 48 1 49
f 48 49 96
f 97 1 48
f 98 96 49
f 99 100 148
f 99 148 147
f 195 100 99
f 196 147 148
f 100 101 149
f 100 149 148
f 195 101 100
f 196 148 149
f 101 102 150
f 101 150 149
f 195 102 101
f 196 149 150
f 102 103 151
f 102 151 150
f 195 103 102
f 196 150 151
f 103 104 152
f 103 152 151
f 195 104 103
f 196 151 152
f 104 105 153
f 104 153 152
f 195 105 104
f 196 152 153
f 105 106 154
f 105 154 153
f 195 106 105
f 196 153 154
f 106 107 155
f 106 155 154
f 195 107 106
f 196 154 155
f 107 108 156
f 107 156 155
f 195 108 107
f 196 155 156
f 108 109 157
f 108 157 156
f 195 109 108
f 196 156 157
f 109 110 158
f 109 158 157
f 195 110 109
f 196 157 158
f 110 111 159
f 110 159 158
f 195 111 110
f 196 158 159
f 111 112 160
f 111 160 159
f 195 112 111
f 196 159 160
f 112 113 161
f 112 161 160
f 195 113 112
f 196 160 161
f 113 114 162
f 113 162 161
f 195 114 113
f 196 161 162
f 114 115 163
f 114 163 162
f 195 115 114
f 196 162 163
f 115 116 164
f 115 164 163
f 195 116 115
f 196 163 164
f 116 117 165
f 116 165 164
f 195 117 116
f 196 164 165
f 117 118 166
f 117 166 165
f 195 118 117
f 196 165 166
f 118 119 167
f 118 167 166
f 195 119 118
f 196 166 167
f 119 120 168
f 119 168 167
f 195 120 119
f 196 167 168
f 120 121 169
f 120 169 168
f 195 121 120
f 196 168 169
f 121 122 170
f 121 170 169
f 195 122 121
f 196 169 170
f 122 123 171
f 122 171 170
f 195 123 122
f 196 170 171
f 123 124 172
f 123 172 171
f 195 124 123
f 196 171 172
f 124 125 173
f 124 173 172
f 195 125 124
f 196 172 173
f 125 126 174
f 125 174 173
f 195 126 125
f 196 173 174
f 126 127 175
f 126 175 174
f 195 127 126
f 196 174 175
f 127 128 176
f 127 176 175
f 195 128 127
f 196 175 176
f 128 129 177
f 128 177 176
f 195 129 128
f 196 176 177
f 129 130 178
f 129 178 177
f 195 130 129
f 196 177 178
f 130 131 179
f 130 179 178
f 195 131 130
f 196 178 179
f 131 132 180
f 131 180 179
f 195 132 131
f 196 179 180
f 132 133 181
f 132 181 180
f 195 133 132
f 196 180 181
f 133 134 182
f 133 182 181
f 195 134 133
f 196 181 182
f 134 135 183
f 134 183 182
f 195 135 134
f 196 182 183
f 135 136 184
f 135 184 183
f 195 136 135
f 196 183 184
f 136 137 185
f 136 185 184
f 195 137 136
f 196 184 185
f 137 138 186
f 137 186 185
f 195 138 137
f 196 185 186
f 138 139 187
f 138 187 186
f 195 139 138
f 196 186 187
f 139 140 188
f 139 188 187
f 195 140 139
f 196 187 188
f 140 141 189
f 140 189 188
f 195 141 140
f 196 188 189
f 141 142 190
f 141 190 189
f 195 142 141
f 196 189 190
f 142 143 191
f 142 191 190
f 195 143 142
f 196 190 191
f 143 144 192
f 143 192 191
f 195 144 143
f 196 191 192
f 144 145 193
f 144 193 192
f 195 145 144
f 196 192 193
f 145 146 194
f 145 194 193
f 195 146 145
f 196 193 194
f 146 99 147
f 146 147 194
f 195 99 146
f 196 194 147
